<?xml version="1.0" standalone="no"?>
<!DOCTYPE svg PUBLIC "-//W3C//DTD SVG 20010904//EN"
 "http://www.w3.org/TR/2001/REC-SVG-20010904/DTD/svg10.dtd">
<svg version="1.0" xmlns="http://www.w3.org/2000/svg"
 width="151.000000pt" height="151.000000pt" viewBox="0 0 151.000000 151.000000"
 preserveAspectRatio="xMidYMid meet">
<metadata>
Created by potrace 1.11, written by Peter Selinger 2001-2013
</metadata>
<g transform="translate(0.000000,151.000000) scale(0.100000,-0.100000)"
fill="#000000" stroke="none">
<path d="M1363 1173 c-33 -6 -88 -66 -118 -128 -50 -106 -76 -311 -51 -408 13
-52 -87 -87 -152 -53 l-31 16 20 56 c21 61 18 88 -12 104 -56 30 -96 -71 -53
-137 24 -39 -5 -73 -63 -73 -40 0 -67 22 -92 74 -28 61 -60 82 -103 67 -17 -6
-39 -18 -48 -26 -16 -14 -18 -11 -23 46 -6 73 -30 111 -75 120 -37 8 -80 -12
-122 -54 l-29 -30 0 49 c0 146 -99 274 -201 258 -83 -13 -134 -57 -178 -152
-56 -122 -16 -315 93 -447 42 -51 39 -19 -4 45 -73 110 -102 265 -67 363 45
124 159 183 234 120 67 -58 86 -188 51 -350 -10 -47 -10 -66 -2 -74 20 -20 41
-2 63 58 27 74 75 146 112 168 81 48 114 -38 86 -230 -5 -33 30 -31 38 2 8 34
48 89 75 103 30 17 54 4 74 -41 40 -87 122 -116 183 -64 28 24 31 24 61 9 40
-20 100 -20 139 0 17 9 33 16 35 16 3 0 10 -19 16 -42 19 -65 81 -149 131
-175 48 -25 107 -30 133 -10 15 10 11 12 -27 9 -88 -7 -157 58 -196 186 l-20
63 71 82 c135 156 208 302 194 387 -7 39 -43 89 -67 91 -7 0 -22 2 -33 3 -11
2 -30 1 -42 -1z m93 -79 c26 -39 19 -99 -21 -180 -35 -73 -101 -168 -158 -231
-28 -30 -32 -32 -38 -16 -11 29 -1 169 17 236 21 83 62 163 97 193 38 32 82
32 103 -2z m-436 -383 c0 -10 -5 -33 -11 -50 -9 -24 -14 -29 -20 -19 -13 19
-11 72 3 86 14 14 28 6 28 -17z"/>
</g>
</svg>
